<svg xmlns="http://www.w3.org/2000/svg" width="48" height="52" viewBox="0 0 500 500"><path d="M355.087 246.789c0 72.936-51.376 130.734-106.422 146.33v-39.908c-58.715 0-106.422-47.706-106.422-106.422 0-58.716 47.707-106.422 106.422-106.422 58.716 0 106.422 47.706 106.422 106.422zm-115.137 5.046v-25.23c0-3.21-2.753-5.504-5.505-5.504h-29.358c-3.21 0-5.504 2.752-5.504 5.505v27.064c0 3.21 2.752 5.504 5.504 5.504h22.477c-2.752 7.798-9.633 13.303-17.431 13.303h-3.67v11.468h3.67c16.514 0 29.817-14.22 30.275-31.651-.458 0-.458-.46-.458-.46zm58.715 0v-25.23c0-3.21-2.752-5.504-5.504-5.504h-29.358c-3.211 0-5.505 2.752-5.505 5.505v27.064c0 3.21 2.752 5.504 5.505 5.504h22.477c-2.752 7.798-9.633 13.303-17.431 13.303h-3.67v11.468h3.67c16.513 0 29.816-14.22 30.275-31.651-.459 0-.459-.46-.459-.46z" fill="#35c1cf"/><path d="M.5 337.615v10.55c0 14.22 8.716 25.688 20.183 25.688h38.991c11.01 0 20.184-11.468 20.184-25.688v-83.027c0-13.762-8.257-24.771-18.808-25.688 4.129-45.872 21.101-87.156 46.79-119.725h.917c7.798 0 15.137-2.753 21.1-8.716 33.028-33.486 75.23-52.293 119.726-52.293h1.376c43.578.458 85.32 18.807 117.89 51.834 6.422 6.422 14.679 9.175 22.935 8.716 26.147 33.486 42.202 75.688 45.872 120.184-10.55.917-18.807 11.926-18.807 25.688v83.486c0 10.092 4.587 18.807 11.009 22.936-11.927 23.853-37.156 55.963-69.266 73.853-7.34 4.128-14.68 6.88-22.019 9.174-5.045-10.092-15.596-16.972-27.523-16.972h-4.128c-17.431 0-31.193 13.761-31.193 31.192 0 17.432 13.762 31.193 31.193 31.193h4.128c14.68 0 27.065-10.092 30.276-23.853 10.091-2.752 20.183-6.422 29.816-11.927 37.156-20.642 68.808-59.633 81.652-89.908h25.688c11.009 0 20.183-11.468 20.183-25.688v-83.027c0-14.22-9.174-25.689-20.183-25.689h-3.67c-3.67-53.21-23.395-104.128-55.046-144.495 1.376-9.174-.917-18.349-7.798-25.688C368.39 25.229 311.968.459 252.335 0H250.5C190.408 0 133.069 24.77 89.032 69.725c-7.34 7.34-9.633 17.431-7.798 26.605-30.734 38.991-50.917 88.532-55.505 143.12h-3.67c-11.009 0-20.183 11.467-20.183 25.688v72.477z" fill="#008aa4"/></svg>