<svg xmlns="http://www.w3.org/2000/svg" width="50" height="52" viewBox="0 0 500 500"><path d="M.265 66.15l27.938 182.994c2.794 15.366 9.778 27.938 22.35 36.32l174.614 128.515 187.185-252.84L237.74 32.624c-12.572-9.779-27.938-12.573-41.907-11.176L11.44 49.387C3.059 50.783-1.132 57.768.265 66.149zm118.737 37.716c23.747-4.19 44.7 11.175 47.495 34.923 4.19 23.747-11.176 44.7-34.923 47.494-23.748 4.191-44.701-11.175-47.495-34.922-4.19-22.35 11.175-43.304 34.923-47.495z" fill="#008aa4"/><path d="M307.584 475.443c6.985 5.588 15.366 4.19 19.557-1.397L497.563 242.16c4.191-6.985 2.794-13.97-2.793-19.557l-50.29-36.32-185.788 252.84z" fill="#35c1cf"/></svg>