<svg xmlns="http://www.w3.org/2000/svg" width="43" height="52" viewBox="0 0 500 500"><path d="M350 187.5c0-20-17.5-37.5-37.5-37.5S275 167.5 275 187.5V225h37.5c20 0 37.5-17.5 37.5-37.5zM225 0H25C10 0 0 10 0 25v200h110c-10-20-12.5-42.5-5-67.5s27.5-42.5 52.5-52.5c25-7.5 47.5-5 67.5 5z" fill="#008aa4"/><path d="M475 0H275v110c20-10 42.5-12.5 67.5-2.5C365 117.5 385 135 395 160s5 47.5-2.5 67.5h100C495 225 500 220 500 215V25c0-15-10-25-25-25z" fill="#35c1cf"/><path d="M500 275H310l105 105-35 35-105-105v190h200c15 0 25-10 25-25z" fill="#008aa4"/><path d="M187.5 150c-20 0-37.5 17.5-37.5 37.5s17.5 37.5 37.5 37.5H225v-37.5c0-20-17.5-37.5-37.5-37.5zm-20 217.5l-35-35L190 275H0v200c0 15 10 25 25 25h200V310z" fill="#35c1cf"/></svg>