<svg xmlns="http://www.w3.org/2000/svg" viewBox="0 0 500 500"><path d="M500 250a250 250 0 01-250 250A250 250 0 010 250 250 250 0 01250 0a250 250 0 01250 250z" fill="#e08526"/><linearGradient gradientUnits="userSpaceOnUse" x1="40.992" y1="73.597" x2="101.564" y2="73.597" id="a" gradientTransform="translate(-292.136 -309.781) scale(7.60572)"><stop offset="0" stop-color="#fded07"/><stop offset="1" stop-color="#f8b819"/></linearGradient><path d="M250 480.301c-126.94 0-230.377-103.362-230.377-230.377C19.623 122.908 122.984 19.547 250 19.547s230.377 103.361 230.377 230.377C480.377 376.939 376.94 480.3 250 480.3z" fill="url(#a)"/><linearGradient id="b" gradientUnits="userSpaceOnUse" x1="66.815" y1="57.803" x2="66.815" y2="99.229" gradientTransform="matrix(7.60572 0 0 -7.60572 -292.136 774.338)"><stop offset="0" stop-color="#f6f5c7"/><stop offset="1" stop-color="#f6f5c7" stop-opacity="0"/></linearGradient><path d="M19.927 260.116c0 1.52.228 3.118.228 4.64 1.065 18.1 4.411 35.746 9.583 52.326 30.804 11.409 64.497 17.646 98.95 17.646 145.346 0 264.832-107.773 283.694-247.947-41.68-41.45-99.255-67.082-162.458-67.082-126.94 0-230.377 103.362-230.377 230.377 0 2.586 0 4.944.228 7.53.152.684.152 1.673.152 2.51z" fill="url(#b)"/><path d="M358.534 123.821H299.97v156.982c0 39.398-18.634 61.683-52.86 61.683-8.519 0-16.352-1.293-22.817-3.88h-.228c-.229-.228-.533-.532-.761-.532-7.758-10.344-11.637-25.099-11.637-43.504V137.51l-17.34-13.766h-58.565v161.698c0 39.625 15.06 73.09 43.277 93.018l10.115 8.062c.228.228 4.412 3.346 4.412 3.346 18.101 13.767 41.679 21.753 70.96 21.753 72.027 0 111.425-48.22 111.425-112.489V137.511z" fill="#ab5526"/><path d="M358.534 123.821V285.52c0 64.268-39.398 112.488-111.424 112.488-72.026 0-111.424-48.22-111.424-112.488v-161.7h58.564v156.982c0 39.398 18.406 61.683 52.86 61.683 34.226 0 52.86-22.285 52.86-61.683V123.821z" fill="#e08526"/><path d="M250.228 446.912c-108.533.228-197.216-87.846-197.216-196.38C52.784 142 140.858 53.316 249.392 53.316c108.533-.228 197.216 87.846 197.216 196.38.304 108.305-87.77 196.912-196.38 197.216zm-.989-376.787C150.213 70.429 69.897 150.974 70.201 250 70.429 348.95 151.05 429.267 250 429.039c98.95-.229 179.267-80.85 179.039-179.8-.305-99.026-80.85-179.114-179.8-179.114z" opacity=".6" fill="#e08526"/><radialGradient id="c" cx="-4660.056" cy="511.457" r="531.552" gradientTransform="translate(3707.446 19.668) scale(.71646)" gradientUnits="userSpaceOnUse"><stop offset="0" stop-color="#fff0b3"/><stop offset=".742" stop-color="#fff0b3" stop-opacity="0"/></radialGradient><path d="M250.228 446.912c-108.533.228-197.216-87.846-197.216-196.38C52.784 142 140.858 53.316 249.392 53.316c108.533-.228 197.216 87.846 197.216 196.38.304 108.305-87.77 196.912-196.38 197.216zm-.989-376.787C150.213 70.429 69.897 150.974 70.201 250 70.429 348.95 151.05 429.267 250 429.039c98.95-.229 179.267-80.85 179.039-179.8-.305-99.026-80.85-179.114-179.8-179.114z" fill="url(#c)"/></svg>