<svg xmlns="http://www.w3.org/2000/svg" width="48" height="52" viewBox="0 0 500 500"><path d="M102.043 292.166L48.41 244.789c-3.576-2.682-3.576-8.046-1.341-11.621 2.682-3.576 8.045-3.576 11.62-.894l53.635 47.377c3.576 2.682 3.576 8.045.894 11.621-2.682 3.576-7.598 3.576-11.174.894zM270.098 439.214l-53.634-47.377c-3.576-2.682-3.576-8.045-.894-11.621 2.682-3.576 8.045-3.576 11.62-.894l53.635 47.377c3.576 2.682 3.576 8.046.894 11.621-3.575 3.576-8.045 4.47-11.62.894zM132.883 331.051S67.628 291.272 35 380.216c16.537-.894 26.37-6.257 39.779-.894 13.409 5.364-62.574 35.31-31.734 120.678 38.885-44.249 75.983-37.097 96.096-38.885 21.006-1.788 75.088-37.097 35.309-93.414-15.196 10.727-33.522 5.364-42.46 12.515-8.94 7.151 18.324-42.014.893-49.165z" fill="#40baca"/><path d="M362.171 253.28c0-3.575.894-6.257 3.576-8.044C486.425 158.079 466.312 35.614 460.054 8.349c-.894-3.575-3.575-6.257-8.045-7.15-29.052-3.577-152.859-7.6-223.03 123.359-1.788 2.681-4.47 4.47-8.046 4.47-68.83 0-85.368 2.681-114.42 37.097l-40.673 46.93c-3.576 3.575-2.682 8.939.894 12.515l52.74 46.93c3.576 3.576 8.94 2.682 12.515-.894l13.409-15.197c3.576-3.575 8.939-4.47 12.515-.893L202.16 294.4l44.249 38.885c3.575 3.575 4.47 8.939.894 12.514l-13.409 15.197c-3.576 3.576-2.682 8.94.894 12.515l52.74 46.93c3.576 3.576 8.94 2.682 12.515-.894l39.78-47.824c29.945-33.522 30.84-50.506 22.347-118.443zm-63.02-70.171c-8.94-8.045-9.834-21.007-1.788-29.946 8.045-8.94 21.007-9.833 29.946-1.788s9.833 21.007 1.787 29.946c-7.598 7.598-21.006 8.492-29.946 1.788zm48.718-56.763c-15.197-13.41-16.538-36.204-3.576-50.953 12.962-14.75 36.203-16.538 50.953-3.576 15.196 13.409 16.537 36.203 3.575 50.953-12.961 15.196-36.203 16.984-50.952 3.576z" fill="#018aa3"/></svg>